<?xml version="1.0" encoding="UTF-8"?>
<!DOCTYPE svg PUBLIC "-//W3C//DTD SVG 1.1//EN" "http://www.w3.org/Graphics/SVG/1.1/DTD/svg11.dtd">
<svg xmlns="http://www.w3.org/2000/svg" version="1.1" width="1667px" height="1667px" style="shape-rendering:geometricPrecision; text-rendering:geometricPrecision; image-rendering:optimizeQuality; fill-rule:evenodd; clip-rule:evenodd" xmlns:xlink="http://www.w3.org/1999/xlink">
<g><path style="opacity:0.994" fill="#222222" d="M 89.5,-0.5 C 99.1667,-0.5 108.833,-0.5 118.5,-0.5C 139.559,3.1953 158.226,12.0286 174.5,26C 394,245.5 613.5,465 833,684.5C 1052.5,465 1272,245.5 1491.5,26C 1507.77,12.0286 1526.44,3.1953 1547.5,-0.5C 1557.17,-0.5 1566.83,-0.5 1576.5,-0.5C 1616.05,6.54113 1643.88,28.5411 1660,65.5C 1662.82,73.4594 1664.99,81.4594 1666.5,89.5C 1666.5,99.1667 1666.5,108.833 1666.5,118.5C 1662.8,139.559 1653.97,158.226 1640,174.5C 1420.5,394 1201,613.5 981.5,833C 1201,1052.5 1420.5,1272 1640,1491.5C 1653.97,1507.77 1662.8,1526.44 1666.5,1547.5C 1666.5,1557.17 1666.5,1566.83 1666.5,1576.5C 1659.46,1616.05 1637.46,1643.88 1600.5,1660C 1592.54,1662.82 1584.54,1664.99 1576.5,1666.5C 1566.83,1666.5 1557.17,1666.5 1547.5,1666.5C 1526.44,1662.8 1507.77,1653.97 1491.5,1640C 1272,1420.5 1052.5,1201 833,981.5C 613.5,1201 394,1420.5 174.5,1640C 158.226,1653.97 139.559,1662.8 118.5,1666.5C 108.833,1666.5 99.1667,1666.5 89.5,1666.5C 49.9517,1659.46 22.1184,1637.46 6,1600.5C 3.17941,1592.54 1.01274,1584.54 -0.5,1576.5C -0.5,1566.83 -0.5,1557.17 -0.5,1547.5C 3.1953,1526.44 12.0286,1507.77 26,1491.5C 245.5,1272 465,1052.5 684.5,833C 465,613.5 245.5,394 26,174.5C 12.0286,158.226 3.1953,139.559 -0.5,118.5C -0.5,108.833 -0.5,99.1667 -0.5,89.5C 6.54113,49.9517 28.5411,22.1184 65.5,6C 73.4594,3.17941 81.4594,1.01274 89.5,-0.5 Z"/></g>
</svg>
