<?xml version="1.0" encoding="UTF-8"?>
<!DOCTYPE svg PUBLIC "-//W3C//DTD SVG 1.1//EN" "http://www.w3.org/Graphics/SVG/1.1/DTD/svg11.dtd">
<svg xmlns="http://www.w3.org/2000/svg" version="1.1" width="1667px" height="1667px" style="shape-rendering:geometricPrecision; text-rendering:geometricPrecision; image-rendering:optimizeQuality; fill-rule:evenodd; clip-rule:evenodd" xmlns:xlink="http://www.w3.org/1999/xlink">
<g><path style="opacity:0.997" fill="#222222" d="M 1666.5,297.5 C 1666.5,307.167 1666.5,316.833 1666.5,326.5C 1659.7,365.15 1638.37,392.65 1602.5,409C 1593.48,412.589 1584.15,414.922 1574.5,416C 1327.33,416.167 1080.17,416.333 833,416.5C 585.833,416.333 338.667,416.167 91.5,416C 46.8607,409.104 17.3607,384.27 3,341.5C 1.87517,336.354 0.708503,331.354 -0.5,326.5C -0.5,316.833 -0.5,307.167 -0.5,297.5C 10.0046,246.497 41.0046,216.664 92.5,208C 339.333,207.833 586.167,207.667 833,207.5C 1079.83,207.667 1326.67,207.833 1573.5,208C 1625,216.664 1656,246.497 1666.5,297.5 Z"/></g>
<g><path style="opacity:0.997" fill="#222222" d="M 1666.5,818.5 C 1666.5,828.167 1666.5,837.833 1666.5,847.5C 1656.14,898.024 1625.47,927.857 1574.5,937C 1327.33,937.167 1080.17,937.333 833,937.5C 585.833,937.333 338.667,937.167 91.5,937C 40.5258,927.857 9.85915,898.024 -0.5,847.5C -0.5,837.833 -0.5,828.167 -0.5,818.5C 9.85915,767.976 40.5258,738.143 91.5,729C 338.667,728.833 585.833,728.667 833,728.5C 1080.17,728.667 1327.33,728.833 1574.5,729C 1625.47,738.143 1656.14,767.976 1666.5,818.5 Z"/></g>
<g><path style="opacity:0.997" fill="#222222" d="M 1666.5,1339.5 C 1666.5,1349.17 1666.5,1358.83 1666.5,1368.5C 1656,1419.5 1625,1449.34 1573.5,1458C 1326.67,1458.17 1079.83,1458.33 833,1458.5C 586.167,1458.33 339.333,1458.17 92.5,1458C 41.0046,1449.34 10.0046,1419.5 -0.5,1368.5C -0.5,1358.83 -0.5,1349.17 -0.5,1339.5C 6.30138,1300.85 27.6347,1273.35 63.5,1257C 72.5216,1253.41 81.8549,1251.08 91.5,1250C 338.667,1249.83 585.833,1249.67 833,1249.5C 1080.17,1249.67 1327.33,1249.83 1574.5,1250C 1619.14,1256.9 1648.64,1281.73 1663,1324.5C 1664.12,1329.65 1665.29,1334.65 1666.5,1339.5 Z"/></g>
</svg>
