<?xml version="1.0" encoding="UTF-8"?>
<!DOCTYPE svg PUBLIC "-//W3C//DTD SVG 1.1//EN" "http://www.w3.org/Graphics/SVG/1.1/DTD/svg11.dtd">
<svg xmlns="http://www.w3.org/2000/svg" version="1.1" width="512px" height="512px" style="shape-rendering:geometricPrecision; text-rendering:geometricPrecision; image-rendering:optimizeQuality; fill-rule:evenodd; clip-rule:evenodd" xmlns:xlink="http://www.w3.org/1999/xlink">
	<g>
		<path style="opacity:0.995" fill="#222" d="M 252.5,60.5 C 271.421,60.6115 283.588,69.6115 289,87.5C 289.5,132.165 289.667,176.832 289.5,221.5C 334.168,221.333 378.835,221.5 423.5,222C 446.957,230.416 454.79,246.583 447,270.5C 441.824,280.006 433.991,286.172 423.5,289C 378.835,289.5 334.168,289.667 289.5,289.5C 289.667,334.168 289.5,378.835 289,423.5C 280.584,446.957 264.417,454.79 240.5,447C 230.994,441.824 224.828,433.991 222,423.5C 221.5,378.835 221.333,334.168 221.5,289.5C 176.832,289.667 132.165,289.5 87.5,289C 64.0432,280.584 56.2099,264.417 64,240.5C 69.1526,231.023 76.9859,224.856 87.5,222C 132.165,221.5 176.832,221.333 221.5,221.5C 221.333,176.832 221.5,132.165 222,87.5C 226.61,72.1271 236.776,63.1271 252.5,60.5 Z"/>
	</g>
</svg>
